<?xml version="1.0" encoding="UTF-8" standalone="no"?>
<!-- Created with Inkscape (http://www.inkscape.org/) -->

<svg
   version="1.1"
   id="svg2"
   width="109.22667"
   height="109.22667"
   viewBox="0 0 109.22667 109.22667"
   sodipodi:docname="vector.svg"
   inkscape:version="1.2.1 (9c6d41e410, 2022-07-14)"
   xmlns:inkscape="http://www.inkscape.org/namespaces/inkscape"
   xmlns:sodipodi="http://sodipodi.sourceforge.net/DTD/sodipodi-0.dtd"
   xmlns="http://www.w3.org/2000/svg"
   xmlns:svg="http://www.w3.org/2000/svg">
  <defs
     id="defs6" />
  <sodipodi:namedview
     id="namedview4"
     pagecolor="#ffffff"
     bordercolor="#000000"
     borderopacity="0.25"
     inkscape:showpageshadow="2"
     inkscape:pageopacity="0.0"
     inkscape:pagecheckerboard="0"
     inkscape:deskcolor="#d1d1d1"
     showgrid="false"
     inkscape:zoom="4.7332763"
     inkscape:cx="46.585069"
     inkscape:cy="57.042941"
     inkscape:window-width="1366"
     inkscape:window-height="697"
     inkscape:window-x="-8"
     inkscape:window-y="-8"
     inkscape:window-maximized="1"
     inkscape:current-layer="g8" />
  <g
     inkscape:groupmode="layer"
     inkscape:label="Image"
     id="g8">
    <path
       style="fill:#050505;stroke:none;stroke-width:0.106667"
       d="m 69.548589,23.643094 c -0.607467,0.193707 -0.624427,0.782293 -0.727574,1.316907 -0.23072,1.195626 -0.530026,2.375893 -0.94848,3.52 -0.483093,1.320747 -1.192213,2.57952 -1.989653,3.733333 -0.327893,0.474347 -1.098347,1.0896 -1.1584,1.68704 -0.05365,0.533974 1.13376,1.353814 1.482453,1.710934 1.566294,1.60416 3.150294,3.20192 4.759467,4.763093 1.072,1.04 2.116054,2.11168 3.166934,3.1728 0.287893,0.290774 0.822293,1.070614 1.28992,0.93376 0.874453,-0.25568 1.7552,-1.286826 2.55008,-1.766293 1.643946,-0.99168 3.459946,-1.700693 5.333333,-2.119893 0.754454,-0.168747 2.193387,-0.109227 2.317654,-1.128214 0.139306,-1.142826 -2.158187,-2.757867 -2.89888,-3.49856 -3.093547,-3.093867 -6.191041,-6.1872 -9.263041,-9.304214 -0.798933,-0.810666 -2.64736,-3.424746 -3.913813,-3.020693 m 4.371413,22.436907 c -1.280853,-1.622293 -2.9888,-2.98848 -4.423893,-4.478506 -0.965227,-1.00224 -1.97344,-1.96576 -2.964374,-2.942934 -0.80512,-0.79392 -1.576746,-1.621013 -2.392,-2.404373 -0.258346,-0.248214 -0.582186,-0.77056 -0.993493,-0.73024 -0.6288,0.06165 -1.389547,1.172693 -1.812907,1.596053 -0.31648,0.31648 -1.145386,0.887893 -1.15168,1.377174 -0.0086,0.672426 1.768534,1.998826 2.248854,2.465493 2.06976,2.0112 4.079466,4.085653 6.12416,6.121813 0.449066,0.447254 1.52512,1.944747 2.174826,1.945707 0.372481,5.33e-4 0.713814,-0.474027 0.950507,-0.710187 l 2.24,-2.24 M 58.773335,39.893335 c -0.79584,0.3712 -1.411413,1.19808 -2.026667,1.813333 l -3.626666,3.626667 -12.373334,12.373333 -4.266667,4.266667 c -0.49056,0.49056 -1.448533,1.141654 -1.679787,1.809067 -0.22336,0.644693 1.751147,2.124267 2.188374,2.564267 1.984747,1.99744 3.988587,3.975893 5.973333,5.973333 0.486507,0.489707 1.58752,2.062187 2.284374,2.131094 0.527146,0.05216 1.143466,-0.840854 1.473706,-1.171094 l 3.946667,-3.946667 13.973334,-13.973333 3.413333,-3.413334 c 0.31584,-0.31584 1.151254,-0.892266 1.151254,-1.382506 0,-0.31776 -0.408214,-0.562347 -0.608427,-0.758827 -0.66912,-0.65664 -1.32928,-1.324374 -1.990933,-1.988587 -2.561707,-2.571947 -5.629547,-5.040427 -7.831894,-7.923413 m 1.924694,7.424426 c 1.184213,-0.458346 1.79776,1.34112 0.634773,1.758614 -1.10816,0.397867 -1.701547,-1.345707 -0.634773,-1.758614 m -3.524267,3.611201 c 1.25664,-0.2528 1.56128,1.711893 0.317973,1.910826 -1.181333,0.189014 -1.47552,-1.677973 -0.317973,-1.910826 m -3.83584,3.739306 c 1.186986,-0.3696 1.807466,1.42336 0.631146,1.794987 -1.18304,0.373867 -1.78272,-1.43648 -0.631146,-1.794987 m -3.735894,3.742827 c 1.130774,-0.427413 1.804907,1.288747 0.734614,1.74752 -1.126507,0.48288 -1.904427,-1.305387 -0.734614,-1.74752 m -3.415253,3.608534 c 1.20288,-0.128214 1.384853,1.756586 0.211626,1.92832 -1.258666,0.184106 -1.536853,-1.786987 -0.211626,-1.92832 m -16.320107,1.065706 c -2.658027,0.34208 -4.062081,3.47584 -2.718507,5.705174 0.741013,1.22944 2.00832,2.123093 2.99328,3.14272 2.60032,2.69216 5.284053,5.31776 7.920533,7.960533 1.419521,1.422827 2.807254,3.021227 5.031361,2.631147 2.65088,-0.464853 3.802773,-3.4544 2.448533,-5.618347 -0.99456,-1.589226 -2.69952,-2.871786 -4.018133,-4.190293 -2.274454,-2.27424 -4.547201,-4.554774 -6.826667,-6.826667 -1.353387,-1.349013 -2.702934,-3.077973 -4.8304,-2.804267 m 12.37792,2.676267 c 1.166613,-0.3632 1.804267,1.447147 0.631147,1.810133 -1.197014,0.370454 -1.789334,-1.4496 -0.631147,-1.810133 m -13.97792,6.345067 c -1.211094,1.830187 -2.301547,3.73632 -3.470827,5.591893 -0.6432,1.0208 -1.45824,2.07904 -1.16608,3.368107 0.265386,1.171627 1.377493,1.87488 2.156373,2.699734 0.916373,0.970666 1.765974,2.026666 3.2272,1.868373 1.04288,-0.112853 1.831147,-0.798933 2.697067,-1.31552 1.821013,-1.086187 3.575787,-2.303147 5.4096,-3.359254 -1.085973,-1.67616 -2.88096,-3.067733 -4.293333,-4.475093 -1.44096,-1.435947 -2.849814,-3.270187 -4.56,-4.37824 z"
       id="path301" />
  </g>
</svg>
